# xmcd
#
# Track frame offsets:
#	150
#	18344
#	32812
#	48189
#	65025
#	75599
#	91669
#	107443
#	121318
#	140780
#	157720
#
# Disc length: 2334 seconds
# Revision: 0
# Processed by: cddbd v1.5.2PL0 Copyright (c) Steve Scherf et al.
# Submitted via: dBpowerAMP V12.0
#
DISCID=7f091c0b
DTITLE=Tom Jones - Praise and Blame
DYEAR=2010
DGENRE=Blues
TTITLE0=What Good Am I?
TTITLE1=Lord Help
TTITLE2=Did Trouble Me
TTITLE3=Strange Things
TTITLE4=Burning Hell
TTITLE5=If I Give My Soul
TTITLE6=Don't Knock
TTITLE7=Nobody's Fault But Mine
TTITLE8=Didn't It Rain
TTITLE9=Ain't No Grave
TTITLE10=Run On
EXTD=
EXTT0=
EXTT1=
EXTT2=
EXTT3=
EXTT4=
EXTT5=
EXTT6=
EXTT7=
EXTT8=
EXTT9=
EXTT10=
PLAYORDER=
